<svg class="svg-icon" style="width: 1em; height: 1em;vertical-align: middle;fill: currentColor;overflow: hidden;" viewBox="0 0 1024 1024" version="1.1" xmlns="http://www.w3.org/2000/svg"><path d="M223.573333 814.293333a65.493333 65.493333 0 1 1 65.493334-65.493333 65.493333 65.493333 0 0 1-65.493334 65.493333z m0-88.32a22.826667 22.826667 0 1 0 22.826667 22.826667 22.826667 22.826667 0 0 0-22.826667-23.466667zM508.8 814.293333a65.493333 65.493333 0 1 1 65.493333-65.493333 65.493333 65.493333 0 0 1-65.493333 65.493333z m0-88.32a22.826667 22.826667 0 1 0 22.826667 22.826667 22.826667 22.826667 0 0 0-22.826667-23.466667zM622.293333 209.706667a87.68 87.68 0 0 0-87.466666 87.68v46.08H289.706667a64 64 0 0 0-64 64V576H158.506667v42.666667H448a129.706667 129.706667 0 0 0 129.493333-129.493334v-192a45.013333 45.013333 0 0 1 44.8-45.013333h52.693334v-42.666667z m-199.68 250.026666V386.133333h112.213334v73.6z m-132.906666-73.6h90.24v73.6h-112.213334v-51.626666a21.333333 21.333333 0 0 1 21.973334-21.973334z m-21.333334 116.266667h112.213334V576h-112.853334zM448 576h-25.386667v-73.6H533.333333A86.826667 86.826667 0 0 1 448 576zM654.72 576h71.68v42.666667h-71.68zM654.72 459.733333h131.2v42.666667h-131.2zM655.36 343.466667h185.173333v42.666666h-185.173333z" fill="#111111" /></svg>